<svg width="413" height="65" viewBox="0 0 413 65" fill="none" xmlns="http://www.w3.org/2000/svg">
<path d="M14.008 5.84C18.104 5.84 21.368 7.01333 23.8 9.36C26.232 11.664 27.448 14.8427 27.448 18.896C27.448 22.9493 25.912 26.4267 22.84 29.328C19.768 32.1867 16.0133 33.616 11.576 33.616H7.928L8.696 50H0.12L0.888 34.448L0.12 5.84H14.008ZM11.704 12.304H8.568L8.12 27.408H12.472C14.6053 27.408 16.248 26.704 17.4 25.296C18.5947 23.888 19.192 21.8827 19.192 19.28C19.192 14.6293 16.696 12.304 11.704 12.304ZM38.9545 50C36.6505 50 34.7732 49.2533 33.3225 47.76C31.9145 46.224 31.2105 44.2187 31.2105 41.744L31.5945 34.384L30.8905 19.024L39.4665 17.424L38.6345 36.88C38.6345 38.7147 38.9545 40.0587 39.5945 40.912C40.2772 41.7653 41.3438 42.192 42.7945 42.192C44.2452 42.192 46.2505 41.4667 48.8105 40.016V36.176L48.1065 19.344L56.7465 17.744L55.9785 33.744L56.0425 38.992C56.0425 41.7227 56.7465 44.4747 58.1545 47.248L51.4985 50.192C50.0905 47.4187 49.2372 45.2 48.9385 43.536C45.0985 47.8453 41.7705 50 38.9545 50ZM63.1955 19.088L70.9395 17.424C71.3235 20.7093 71.5795 23.824 71.7075 26.768C75.5902 20.752 79.2382 17.744 82.6515 17.744L81.9475 27.728C79.4728 27.728 77.5102 27.9627 76.0595 28.432C74.6515 28.8587 73.2008 29.7333 71.7075 31.056V33.36L72.4115 48.4L63.8355 50L64.6035 34.448C64.4328 28.7307 63.9635 23.6107 63.1955 19.088ZM103.8 17.68C106.531 17.68 108.813 18.8747 110.648 21.264C112.525 23.6533 113.464 26.8747 113.464 30.928C113.464 36.6027 111.992 41.2107 109.048 44.752C106.147 48.2507 102.52 50 98.168 50C97.272 50 96.2693 49.936 95.16 49.808L95.48 62.032L86.712 63.632L87.544 34.448H87.608C87.4373 28.7307 86.968 23.6107 86.2 19.088L93.944 17.424C94.2 19.6853 94.4133 21.9253 94.584 24.144C94.6693 23.9307 95.096 23.3547 95.864 22.416C96.6747 21.4347 97.848 20.4107 99.384 19.344C100.92 18.2347 102.392 17.68 103.8 17.68ZM101.304 26C99.0427 26 96.8453 26.6187 94.712 27.856V33.36L94.968 42.512C97.272 42.896 99.0213 43.088 100.216 43.088C104.312 43.088 106.36 40.2507 106.36 34.576C106.36 28.8587 104.675 26 101.304 26ZM127.543 0.463997L126.711 33.36L127.415 48.4L118.775 50L119.543 34.448L118.775 2.064L127.543 0.463997ZM146.482 43.472C147.719 43.472 149.021 43.152 150.386 42.512C151.751 41.872 152.818 41.232 153.586 40.592L154.738 39.632L157.682 43.216C157.255 43.9413 156.594 44.7733 155.698 45.712C154.802 46.6507 153.885 47.4613 152.946 48.144C152.05 48.784 150.834 49.3813 149.298 49.936C147.805 50.448 146.247 50.704 144.626 50.704C141.17 50.704 138.354 49.4027 136.178 46.8C134.002 44.1547 132.914 40.7627 132.914 36.624C132.914 31.4187 134.429 26.8533 137.458 22.928C140.487 19.0027 144.029 17.04 148.082 17.04C151.197 17.04 153.607 17.9147 155.314 19.664C157.063 21.4133 157.938 23.8667 157.938 27.024C157.938 28.9013 157.618 31.0347 156.978 33.424L155.698 34.768L139.698 36.24C140.423 41.0613 142.685 43.472 146.482 43.472ZM146.482 23.632C144.605 23.632 143.026 24.4 141.746 25.936C140.466 27.4293 139.719 29.3493 139.506 31.696L150.386 30.352C150.514 29.3707 150.578 28.56 150.578 27.92C150.578 25.0613 149.213 23.632 146.482 23.632ZM175.512 37.264C179.138 40.8907 182.765 42.704 186.392 42.704C188.269 42.704 189.762 42.2773 190.872 41.424C192.024 40.528 192.6 39.3973 192.6 38.032C192.6 36.624 191.917 35.4507 190.552 34.512C189.186 33.5307 187.522 32.6773 185.56 31.952C183.64 31.2267 181.72 30.416 179.8 29.52C177.88 28.5813 176.237 27.2587 174.872 25.552C173.506 23.8453 172.824 21.776 172.824 19.344C172.824 15.504 174.424 12.1973 177.624 9.424C180.824 6.608 184.621 5.2 189.016 5.2C191.021 5.2 192.962 5.41333 194.84 5.84C196.717 6.26667 198.53 6.88533 200.28 7.696L195.928 17.04C194.733 16.1013 193.09 15.248 191 14.48C188.952 13.6693 187.138 13.264 185.56 13.264C184.024 13.264 182.765 13.648 181.784 14.416C180.845 15.1413 180.376 16.1227 180.376 17.36C180.376 18.5973 181.058 19.7067 182.424 20.688C183.789 21.6267 185.432 22.4587 187.352 23.184C189.314 23.9093 191.256 24.72 193.176 25.616C195.138 26.4693 196.802 27.7493 198.168 29.456C199.533 31.1627 200.216 33.232 200.216 35.664C200.216 39.6747 198.616 43.1947 195.416 46.224C192.216 49.2107 188.482 50.704 184.216 50.704C181.016 50.704 178.178 49.936 175.704 48.4C173.528 47.0773 171.992 45.904 171.096 44.88L170.52 44.176L175.512 37.264ZM224.275 33.808C224.275 30.864 224.019 28.9013 223.507 27.92C222.995 26.9387 221.8 26.448 219.923 26.448C218.046 26.448 215.912 27.1947 213.523 28.688V33.36L214.227 48.4L205.587 50L206.355 34.448L205.587 2.064L214.355 0.463997L213.523 17.04V24.528C214.163 23.6747 214.888 22.8427 215.699 22.032C216.51 21.2213 217.768 20.304 219.475 19.28C221.182 18.256 222.995 17.744 224.915 17.744C226.878 17.744 228.52 18.512 229.843 20.048C231.166 21.5413 231.827 23.5893 231.827 26.192L231.443 33.36L232.147 48.72L223.507 50.32L224.275 33.808ZM237.292 36.624C237.292 31.1627 238.764 26.5333 241.708 22.736C244.652 18.9387 248.087 17.04 252.012 17.04C255.98 17.04 259.052 18.32 261.228 20.88C263.447 23.44 264.556 26.832 264.556 31.056C264.556 36.688 263.127 41.3813 260.268 45.136C257.452 48.848 253.889 50.704 249.58 50.704C246.039 50.704 243.095 49.3813 240.748 46.736C238.444 44.048 237.292 40.6773 237.292 36.624ZM257.388 34.384C257.388 28.1973 255.276 25.104 251.052 25.104C246.657 25.104 244.46 28.0053 244.46 33.808C244.46 36.8373 245.079 39.2053 246.316 40.912C247.553 42.6187 249.175 43.472 251.18 43.472C253.228 43.472 254.764 42.704 255.788 41.168C256.855 39.5893 257.388 37.328 257.388 34.384ZM287.175 17.68C289.906 17.68 292.188 18.8747 294.023 21.264C295.9 23.6533 296.839 26.8747 296.839 30.928C296.839 36.6027 295.367 41.2107 292.423 44.752C289.522 48.2507 285.895 50 281.543 50C280.647 50 279.644 49.936 278.535 49.808L278.855 62.032L270.087 63.632L270.919 34.448H270.983C270.812 28.7307 270.343 23.6107 269.575 19.088L277.319 17.424C277.575 19.6853 277.788 21.9253 277.959 24.144C278.044 23.9307 278.471 23.3547 279.239 22.416C280.05 21.4347 281.223 20.4107 282.759 19.344C284.295 18.2347 285.767 17.68 287.175 17.68ZM284.679 26C282.418 26 280.22 26.6187 278.087 27.856V33.36L278.343 42.512C280.647 42.896 282.396 43.088 283.591 43.088C287.687 43.088 289.735 40.2507 289.735 34.576C289.735 28.8587 288.05 26 284.679 26ZM319.238 17.68C321.968 17.68 324.251 18.8747 326.086 21.264C327.963 23.6533 328.902 26.8747 328.902 30.928C328.902 36.6027 327.43 41.2107 324.486 44.752C321.584 48.2507 317.958 50 313.606 50C312.71 50 311.707 49.936 310.598 49.808L310.918 62.032L302.15 63.632L302.982 34.448H303.046C302.875 28.7307 302.406 23.6107 301.638 19.088L309.382 17.424C309.638 19.6853 309.851 21.9253 310.022 24.144C310.107 23.9307 310.534 23.3547 311.302 22.416C312.112 21.4347 313.286 20.4107 314.822 19.344C316.358 18.2347 317.83 17.68 319.238 17.68ZM316.742 26C314.48 26 312.283 26.6187 310.15 27.856V33.36L310.406 42.512C312.71 42.896 314.459 43.088 315.654 43.088C319.75 43.088 321.798 40.2507 321.798 34.576C321.798 28.8587 320.112 26 316.742 26ZM342.788 17.424L342.02 33.36L342.724 48.4L334.148 50L334.916 34.448L334.212 19.024L342.788 17.424ZM333.764 8.08C333.764 6.62933 334.319 5.34933 335.428 4.24C336.537 3.088 337.817 2.512 339.268 2.512C340.719 2.512 341.828 2.91733 342.596 3.728C343.364 4.496 343.748 5.66933 343.748 7.248C343.748 8.82666 343.193 10.192 342.084 11.344C341.017 12.4533 339.759 13.008 338.308 13.008C336.9 13.008 335.791 12.5387 334.98 11.6C334.169 10.6613 333.764 9.488 333.764 8.08ZM368.397 33.808C368.397 30.864 368.141 28.9013 367.629 27.92C367.117 26.9387 365.922 26.448 364.045 26.448C362.168 26.448 360.034 27.1947 357.645 28.688V33.36L358.349 48.4L349.773 50L350.541 34.448C350.37 28.7307 349.901 23.6107 349.133 19.088L356.877 17.424C357.176 19.8987 357.389 22.3093 357.517 24.656C358.157 23.8027 358.882 22.9707 359.693 22.16C360.504 21.3067 361.784 20.368 363.533 19.344C365.282 18.2773 367.117 17.744 369.037 17.744C371 17.744 372.642 18.512 373.965 20.048C375.288 21.5413 375.949 23.5893 375.949 26.192L375.565 33.36L376.269 48.72L367.629 50.32L368.397 33.808ZM381.097 56.336C381.097 52.5813 384.596 49.6373 391.593 47.504C389.929 46.6507 389.097 45.5413 389.097 44.176C389.097 43.6213 389.31 43.0667 389.737 42.512C390.164 41.9573 390.782 41.3813 391.593 40.784V40.272C388.521 40.272 386.068 39.4187 384.233 37.712C382.441 36.0053 381.545 33.7227 381.545 30.864C381.545 27.152 383.06 23.9307 386.089 21.2C389.118 18.4267 392.702 17.04 396.841 17.04C397.908 17.04 399.465 17.2533 401.513 17.68C403.561 18.1067 405.566 18.32 407.529 18.32H412.457L411.817 23.888L407.017 23.312C407.444 24.5493 407.657 25.9573 407.657 27.536C407.657 29.1147 407.273 30.6933 406.505 32.272C405.78 33.808 404.884 35.0453 403.817 35.984C402.793 36.9227 401.748 37.7547 400.681 38.48C399.657 39.1627 398.761 39.7813 397.993 40.336C397.268 40.848 396.905 41.3173 396.905 41.744C396.905 42.5547 397.758 43.2587 399.465 43.856C403.988 45.6907 407.038 47.248 408.617 48.528C410.238 49.808 411.049 51.3867 411.049 53.264C411.049 56.4213 409.449 59.0027 406.249 61.008C403.092 63.056 399.316 64.08 394.921 64.08C390.526 64.08 387.113 63.376 384.681 61.968C382.292 60.56 381.097 58.6827 381.097 56.336ZM400.425 29.456C400.425 27.3653 399.956 25.8293 399.017 24.848C398.078 23.8667 396.606 23.376 394.601 23.376C390.718 23.376 388.777 25.296 388.777 29.136C388.777 32.9333 390.846 34.832 394.985 34.832C398.612 34.832 400.425 33.04 400.425 29.456ZM402.729 54.224C402.729 53.456 402.324 52.7307 401.513 52.048C400.702 51.408 399.252 50.64 397.161 49.744C394.046 50.5973 391.892 51.3867 390.697 52.112C389.545 52.8373 388.969 53.7333 388.969 54.8C388.969 55.8667 389.545 56.72 390.697 57.36C391.892 58.0427 393.534 58.384 395.625 58.384C397.716 58.384 399.422 58 400.745 57.232C402.068 56.464 402.729 55.4613 402.729 54.224Z" fill="#7033FF"/>
</svg>
